{
  "accessors": [
    {
      "bufferView": 1,
      "componentType": 5126,
      "count": 65472,
      "max": [
        42.41888427734375,
        42.876041412353516,
        12.961544036865234
      ],
      "min": [
        -43.042919158935547,
        -42.990715026855469,
        -28.466268539428711
      ],
      "type": "VEC3"
    },
    {
      "bufferView": 1,
      "byteOffset": 785664,
      "componentType": 5126,
      "count": 65472,
      "max": [
        0.99998271465301514,
        0.99998462200164795,
        0.99995201826095581
      ],
      "min": [
        -0.99996930360794067,
        -0.99998462200164795,
        -1
      ],
      "type": "VEC3"
    },
    {
      "bufferView": 2,
      "componentType": 5126,
      "count": 65472,
      "max": [
        1,
        1,
        1,
        1
      ],
      "min": [
        1,
        0,
        0,
        1
      ],
      "type": "VEC4"
    },
    {
      "bufferView": 0,
      "componentType": 5125,
      "count": 281688,
      "max": [
        65471
      ],
      "min": [
        0
      ],
      "type": "SCALAR"
    },
    {
      "bufferView": 1,
      "byteOffset": 1571328,
      "componentType": 5126,
      "count": 65415,
      "max": [
        42.411659240722656,
        42.927906036376953,
        12.961544036865234
      ],
      "min": [
        -43.034389495849609,
        -43.004764556884766,
        -28.466268539428711
      ],
      "type": "VEC3"
    },
    {
      "bufferView": 1,
      "byteOffset": 2356308,
      "componentType": 5126,
      "count": 65415,
      "max": [
        0.99999046325683594,
        0.99990397691726685,
        0.99995201826095581
      ],
      "min": [
        -0.99995201826095581,
        -0.99997508525848389,
        -1
      ],
      "type": "VEC3"
    },
    {
      "bufferView": 2,
      "byteOffset": 1047552,
      "componentType": 5126,
      "count": 65415,
      "max": [
        1,
        1,
        1,
        1
      ],
      "min": [
        1,
        0,
        0,
        1
      ],
      "type": "VEC4"
    },
    {
      "bufferView": 0,
      "byteOffset": 1126752,
      "componentType": 5125,
      "count": 227025,
      "max": [
        65414
      ],
      "min": [
        0
      ],
      "type": "SCALAR"
    },
    {
      "bufferView": 1,
      "byteOffset": 3141288,
      "componentType": 5126,
      "count": 65364,
      "max": [
        42.803455352783203,
        42.917407989501953,
        12.83362865447998
      ],
      "min": [
        -43.042873382568359,
        -43.017879486083984,
        -28.466268539428711
      ],
      "type": "VEC3"
    },
    {
      "bufferView": 1,
      "byteOffset": 3925656,
      "componentType": 5126,
      "count": 65364,
      "max": [
        0.99998271465301514,
        0.99990588426589966,
        0.99990397691726685
      ],
      "min": [
        -0.99996930360794067,
        -0.99998462200164795,
        -1
      ],
      "type": "VEC3"
    },
    {
      "bufferView": 2,
      "byteOffset": 2094192,
      "componentType": 5126,
      "count": 65364,
      "max": [
        1,
        1,
        1,
        1
      ],
      "min": [
        1,
        0,
        0,
        1
      ],
      "type": "VEC4"
    },
    {
      "bufferView": 0,
      "byteOffset": 2034852,
      "componentType": 5125,
      "count": 249792,
      "max": [
        65363
      ],
      "min": [
        0
      ],
      "type": "SCALAR"
    },
    {
      "bufferView": 1,
      "byteOffset": 4710024,
      "componentType": 5126,
      "count": 65379,
      "max": [
        42.882907867431641,
        42.936046600341797,
        12.560861587524414
      ],
      "min": [
        -43.018367767333984,
        -43.257778167724609,
        -28.104679107666016
      ],
      "type": "VEC3"
    },
    {
      "bufferView": 1,
      "byteOffset": 5494572,
      "componentType": 5126,
      "count": 65379,
      "max": [
        0.99996739625930786,
        0.99984246492385864,
        0.99999809265136719
      ],
      "min": [
        -0.99986934661865234,
        -0.99962735176086426,
        -0.99999809265136719
      ],
      "type": "VEC3"
    },
    {
      "bufferView": 2,
      "byteOffset": 3140016,
      "componentType": 5126,
      "count": 65379,
      "max": [
        1,
        1,
        1,
        1
      ],
      "min": [
        1,
        0,
        0,
        1
      ],
      "type": "VEC4"
    },
    {
      "bufferView": 0,
      "byteOffset": 3034020,
      "componentType": 5125,
      "count": 263196,
      "max": [
        65378
      ],
      "min": [
        0
      ],
      "type": "SCALAR"
    },
    {
      "bufferView": 1,
      "byteOffset": 6279120,
      "componentType": 5126,
      "count": 65380,
      "max": [
        42.882907867431641,
        42.938098907470703,
        12.560861587524414
      ],
      "min": [
        -43.022815704345703,
        -43.261516571044922,
        -28.091297149658203
      ],
      "type": "VEC3"
    },
    {
      "bufferView": 1,
      "byteOffset": 7063680,
      "componentType": 5126,
      "count": 65380,
      "max": [
        0.99990004301071167,
        0.99998080730438232,
        0.99999809265136719
      ],
      "min": [
        -0.99986934661865234,
        -0.99995201826095581,
        -0.99999809265136719
      ],
      "type": "VEC3"
    },
    {
      "bufferView": 2,
      "byteOffset": 4186080,
      "componentType": 5126,
      "count": 65380,
      "max": [
        1,
        1,
        1,
        1
      ],
      "min": [
        1,
        0,
        0,
        1
      ],
      "type": "VEC4"
    },
    {
      "bufferView": 0,
      "byteOffset": 4086804,
      "componentType": 5125,
      "count": 268329,
      "max": [
        65379
      ],
      "min": [
        0
      ],
      "type": "SCALAR"
    },
    {
      "bufferView": 1,
      "byteOffset": 7848240,
      "componentType": 5126,
      "count": 56877,
      "max": [
        42.463737487792969,
        42.938098907470703,
        12.554094314575195
      ],
      "min": [
        -43.063106536865234,
        -43.256526947021484,
        -28.427892684936523
      ],
      "type": "VEC3"
    },
    {
      "bufferView": 1,
      "byteOffset": 8530764,
      "componentType": 5126,
      "count": 56877,
      "max": [
        0.99993467330932617,
        0.99998462200164795,
        0.99915331602096558
      ],
      "min": [
        -0.99999809265136719,
        -0.99970608949661255,
        -1
      ],
      "type": "VEC3"
    },
    {
      "bufferView": 2,
      "byteOffset": 5232160,
      "componentType": 5126,
      "count": 56877,
      "max": [
        1,
        1,
        1,
        1
      ],
      "min": [
        1,
        0,
        0,
        1
      ],
      "type": "VEC4"
    },
    {
      "bufferView": 0,
      "byteOffset": 5160120,
      "componentType": 5125,
      "count": 228936,
      "max": [
        56876
      ],
      "min": [
        0
      ],
      "type": "SCALAR"
    }
  ],
  "asset": {
    "extras": {
      "author": "ARTINCO (https://sketchfab.com/artinco)",
      "license": "CC-BY-4.0 (http://creativecommons.org/licenses/by/4.0/)",
      "source": "https://sketchfab.com/3d-models/donut-bf26de8621e647e08b84eb2b0b6794df",
      "title": "Donut"
    },
    "generator": "Sketchfab-4.48.0",
    "version": "2.0"
  },
  "bufferViews": [
    {
      "buffer": 0,
      "byteLength": 6075864,
      "byteOffset": 0,
      "name": "floatBufferViews",
      "target": 34963
    },
    {
      "buffer": 0,
      "byteLength": 9213288,
      "byteOffset": 6075864,
      "byteStride": 12,
      "name": "floatBufferViews",
      "target": 34962
    },
    {
      "buffer": 0,
      "byteLength": 6142192,
      "byteOffset": 15289152,
      "byteStride": 16,
      "name": "floatBufferViews",
      "target": 34962
    }
  ],
  "buffers": [
    {
      "byteLength": 21431344,
      "uri": "scene.bin"
    }
  ],
  "materials": [
    {
      "doubleSided": false,
      "emissiveFactor": [
        0,
        0,
        0
      ],
      "name": "DefaultMaterial",
      "pbrMetallicRoughness": {
        "baseColorFactor": [
          1,
          1,
          1,
          1
        ],
        "metallicFactor": 0.5,
        "roughnessFactor": 0.5
      }
    }
  ],
  "meshes": [
    {
      "primitives": [
        {
          "attributes": {
            "COLOR_0": 2,
            "NORMAL": 1,
            "POSITION": 0
          },
          "indices": 3,
          "material": 0,
          "mode": 4
        }
      ]
    },
    {
      "primitives": [
        {
          "attributes": {
            "COLOR_0": 6,
            "NORMAL": 5,
            "POSITION": 4
          },
          "indices": 7,
          "material": 0,
          "mode": 4
        }
      ]
    },
    {
      "primitives": [
        {
          "attributes": {
            "COLOR_0": 10,
            "NORMAL": 9,
            "POSITION": 8
          },
          "indices": 11,
          "material": 0,
          "mode": 4
        }
      ]
    },
    {
      "primitives": [
        {
          "attributes": {
            "COLOR_0": 14,
            "NORMAL": 13,
            "POSITION": 12
          },
          "indices": 15,
          "material": 0,
          "mode": 4
        }
      ]
    },
    {
      "primitives": [
        {
          "attributes": {
            "COLOR_0": 18,
            "NORMAL": 17,
            "POSITION": 16
          },
          "indices": 19,
          "material": 0,
          "mode": 4
        }
      ]
    },
    {
      "primitives": [
        {
          "attributes": {
            "COLOR_0": 22,
            "NORMAL": 21,
            "POSITION": 20
          },
          "indices": 23,
          "material": 0,
          "mode": 4
        }
      ]
    }
  ],
  "nodes": [
    {
      "children": [
        1
      ],
      "name": "RootNode (gltf orientation matrix)",
      "rotation": [
        -0.70710678118654746,
        -0,
        -0,
        0.70710678118654757
      ]
    },
    {
      "children": [
        2
      ],
      "name": "RootNode (model correction matrix)"
    },
    {
      "children": [
        3
      ],
      "name": "root"
    },
    {
      "children": [
        4
      ],
      "matrix": [
        1,
        0,
        0,
        0,
        0,
        2.2204460492503131e-16,
        1,
        0,
        0,
        -1,
        2.2204460492503131e-16,
        0,
        0,
        0,
        0,
        1
      ],
      "name": "GLTF_SceneRootNode"
    },
    {
      "children": [
        5
      ],
      "matrix": [
        0.0099999997764825821,
        0,
        0,
        0,
        0,
        0.0099999997764825821,
        0,
        0,
        0,
        0,
        0.0099999997764825821,
        0,
        0,
        0,
        0,
        1
      ],
      "name": "RootNode_0"
    },
    {
      "children": [
        6,
        7,
        8,
        9,
        10,
        11
      ],
      "name": "97da93a_1"
    },
    {
      "mesh": 0,
      "name": ""
    },
    {
      "mesh": 1,
      "name": ""
    },
    {
      "mesh": 2,
      "name": ""
    },
    {
      "mesh": 3,
      "name": ""
    },
    {
      "mesh": 4,
      "name": ""
    },
    {
      "mesh": 5,
      "name": ""
    }
  ],
  "scene": 0,
  "scenes": [
    {
      "name": "OSG_Scene",
      "nodes": [
        0
      ]
    }
  ]
}

